# .PCD v0.7 - Point Cloud Data file format
VERSION 0.7
FIELDS x y z rgb
SIZE 4 4 4 4
TYPE F F F U
COUNT 1 1 1 1
WIDTH 310
HEIGHT 1
VIEWPOINT 0 0 0 1 0 0 0
POINTS 310
DATA ascii
-0.1996029 0.24923405 0.018495172 4279258384
-0.19776031 0.24923402 0.018496638 4279061005
-0.19530353 0.24923398 0.018498592 4279192591
-0.19284675 0.24923395 0.018500546 4279126798
-0.19038996 0.2492339 0.0185025 4279126798
-0.18793318 0.24923386 0.018504454 4279192591
-0.18547639 0.24923381 0.018506408 4278995212
-0.18301961 0.24923377 0.018508362 4279126798
-0.18056281 0.24923372 0.018510316 4279258384
-0.17810602 0.24923368 0.018512269 4279192591
-0.17564924 0.24923365 0.018514225 4278995212
-0.17319247 0.2492336 0.018516179 4279192591
-0.17073569 0.24923356 0.018518133 4279126798
-0.16827889 0.24923351 0.018520087 4279061005
-0.1658221 0.24923347 0.018522041 4279061005
-0.16336532 0.24923342 0.018523995 4278863626
-0.16090854 0.24923339 0.018525949 4279192591
-0.15845175 0.24923335 0.018527903 4278929419
-0.15599495 0.24923331 0.018529857 4279126798
-0.15353817 0.24923326 0.01853181 4279061005
-0.15108138 0.24923322 0.018533764 4279126798
-0.1486246 0.24923317 0.018535718 4279126798
-0.14616781 0.24923313 0.018537674 4279126798
-0.14371103 0.2492331 0.018539628 4278995212
-0.14125425 0.24923305 0.018541582 4278929419
-0.13879746 0.24923301 0.018543536 4279192591
-0.13634066 0.24923296 0.01854549 4279192591
-0.13388388 0.24923292 0.018547444 4279061005
-0.13142708 0.24923287 0.018549398 4279192591
-0.1283561 0.24923281 0.01855184 4279061005
-0.12528513 0.24923277 0.018554283 4279126798
-0.12282834 0.24923272 0.018556237 4279192591
-0.12037156 0.24923268 0.018558191 4279061005
-0.11791477 0.24923265 0.018560145 4279126798
-0.115458 0.24923261 0.018562099 4279126798
-0.11300121 0.24923256 0.018564053 4278995212
-0.11054441 0.24923252 0.018566007 4278995212
-0.10808763 0.24923247 0.018567961 4279061005
-0.10563083 0.24923243 0.018569915 4279126798
-0.10317405 0.2492324 0.01857187 4279061005
-0.10071726 0.24923235 0.018573824 4279126798
-0.098260477 0.24923231 0.018575778 4278929419
-0.095803693 0.24923226 0.018577732 4279126798
-0.093346909 0.24923222 0.018579686 4278995212
-0.090890132 0.24923217 0.01858164 4279126798
-0.088433348 0.24923213 0.018583594 4279192591
-0.085976563 0.2492321 0.018585548 4278995212
-0.083519779 0.24923205 0.018587502 4279061005
-0.081062995 0.24923201 0.018589456 4279126798
-0.078606211 0.24923196 0.01859141 4279126798
-0.076149426 0.24923192 0.018593363 4279126798
-0.073692642 0.24923187 0.018595319 4278995212
-0.071235858 0.24923183 0.018597273 4279061005
-0.068779044 0.2492318 0.018599227 4279126798
-0.066322267 0.24923176 0.018601181 4279061005
-0.063865483 0.24923171 0.018603135 4279192591
-0.061408699 0.24923167 0.018605089 4279126798
-0.058337688 0.24923161 0.018607531 4278995212
-0.055266708 0.24923156 0.018609975 4278995212
-0.052809924 0.24923152 0.018611928 4278929419
-0.050353143 0.24923147 0.018613882 4279126798
-0.048510555 0.24923144 0.018615348 4278929419
-0.1983559 0.24909754 0.015496256 4278995212
-0.1958883 0.2490975 0.015498218 4279061005
-0.19342069 0.24909745 0.015500181 4278995212
-0.19095308 0.24909741 0.015502144 4279258384
-0.18848546 0.24909736 0.015504107 4279061005
-0.18601786 0.24909733 0.015506069 4278929419
-0.18355025 0.24909729 0.015508031 4279192591
-0.18108265 0.24909724 0.015509995 4279192591
-0.17861505 0.2490972 0.015511957 4278863626
-0.17614743 0.24909715 0.01551392 4278995212
-0.17367983 0.24909711 0.015515883 4279061005
-0.17121223 0.24909706 0.015517845 4279126798
-0.16874462 0.24909703 0.015519808 4279126798
-0.16627699 0.24909699 0.01552177 4279061005
-0.16380939 0.24909694 0.015523734 4279126798
-0.16134179 0.2490969 0.015525696 4278732040
-0.15887418 0.24909686 0.015527658 4278995212
-0.15640655 0.24909681 0.015529621 4279061005
-0.15393895 0.24909677 0.015531584 4279126798
-0.15085442 0.24909671 0.015534038 4279061005
-0.14776993 0.24909666 0.015536491 4279126798
-0.14530233 0.24909662 0.015538453 4279061005
-0.14283472 0.24909657 0.015540416 4279258384
-0.14036709 0.24909654 0.015542379 4279061005
-0.13789949 0.2490965 0.015544342 4279061005
-0.13543189 0.24909645 0.015546304 4279126798
-0.13296428 0.24909641 0.015548266 4279061005
-0.13049665 0.24909636 0.01555023 4279258384
-0.12802906 0.24909632 0.015552192 4279126798
-0.12556146 0.24909627 0.015554155 4279126798
-0.12309385 0.24909624 0.015556118 4279061005
-0.12062622 0.2490962 0.01555808 4278995212
-0.11815862 0.24909616 0.015560043 4279061005
-0.11569102 0.24909611 0.015562005 4279061005
-0.11322342 0.24909607 0.015563969 4279126798
-0.11075579 0.24909602 0.015565931 4279192591
-0.10828818 0.24909598 0.015567894 4279126798
-0.10582058 0.24909593 0.015569856 4279061005
-0.10335296 0.2490959 0.015571819 4279126798
-0.10088536 0.24909586 0.015573782 4279126798
-0.098417744 0.24909581 0.015575744 4278995212
-0.095950142 0.24909577 0.015577707 4279192591
-0.093482532 0.24909572 0.01557967 4279126798
-0.091014914 0.24909568 0.015581632 4279126798
-0.088547312 0.24909563 0.015583595 4279192591
-0.086079709 0.2490956 0.015585558 4279126798
-0.083612107 0.24909556 0.015587521 4279126798
-0.081144474 0.24909551 0.015589483 4279258384
-0.078676872 0.24909547 0.015591446 4279192591
-0.076209269 0.24909543 0.015593409 4279192591
-0.073741637 0.24909538 0.015595371 4278995212
-0.071274035 0.24909534 0.015597334 4279061005
-0.06880644 0.24909531 0.015599296 4278995212
-0.066338837 0.24909526 0.01560126 4279192591
-0.063871235 0.24909522 0.015603222 4279061005
-0.061403602 0.24909517 0.015605184 4278929419
-0.058936 0.24909513 0.015607147 4278797833
-0.055851489 0.24909507 0.015609601 4279126798
-0.052766979 0.24909502 0.015612054 4279192591
-0.05029938 0.24909498 0.015614017 4279061005
-0.047831748 0.24909493 0.015615979 4279126798
-0.19813265 0.24931242 0.011496338 4279192591
-0.19627112 0.24931239 0.011497819 4279126798
-0.19378908 0.24931234 0.011499793 4279192591
-0.19130704 0.2493123 0.011501767 4279258384
-0.188825 0.24931225 0.011503741 4279258384
-0.18634298 0.24931221 0.011505716 4279061005
-0.18386094 0.24931216 0.01150769 4278995212
-0.1813789 0.24931212 0.011509663 4279061005
-0.17889684 0.24931207 0.011511638 4279126798
-0.17641482 0.24931204 0.011513612 4279192591
-0.17393279 0.249312 0.011515586 4279126798
-0.17145073 0.24931195 0.01151756 4279126798
-0.16834818 0.24931189 0.011520028 4279061005
-0.16524562 0.24931185 0.011522496 4279061005
-0.1627636 0.2493118 0.01152447 4279126798
-0.16028157 0.24931176 0.011526444 4279126798
-0.15779951 0.24931172 0.011528418 4279061005
-0.15531749 0.24931167 0.011530393 4278995212
-0.15283543 0.24931163 0.011532366 4279126798
-0.1503534 0.24931158 0.011534341 4279061005
-0.14787136 0.24931154 0.011536315 4279126798
-0.14538932 0.24931151 0.011538289 4279126798
-0.14290728 0.24931146 0.011540263 4279126798
-0.14042524 0.24931142 0.011542237 4278929419
-0.13794321 0.24931137 0.011544212 4278995212
-0.13546117 0.24931133 0.011546185 4279126798
-0.13297914 0.24931128 0.01154816 4279192591
-0.13049708 0.24931124 0.011550134 4279126798
-0.12801506 0.24931119 0.011552108 4279061005
-0.125533 0.24931116 0.011554082 4279126798
-0.12305097 0.24931112 0.011556056 4279126798
-0.12056895 0.24931107 0.011558031 4279258384
-0.11808689 0.24931103 0.011560005 4279324177
-0.11560485 0.24931099 0.011561979 4279061005
-0.11312281 0.24931094 0.011563953 4279126798
-0.11064076 0.2493109 0.011565927 4278995212
-0.10815874 0.24931085 0.011567902 4278995212
-0.1056767 0.24931082 0.011569875 4279192591
-0.10319465 0.24931078 0.01157185 4278995212
-0.10071262 0.24931073 0.011573824 4279061005
-0.098230563 0.24931069 0.011575799 4279192591
-0.095748536 0.24931064 0.011577772 4279126798
-0.093266495 0.2493106 0.011579746 4279192591
-0.090784453 0.24931055 0.011581721 4278995212
-0.088302426 0.24931051 0.011583694 4278929419
-0.085820369 0.24931046 0.011585669 4278995212
-0.083338343 0.24931043 0.011587643 4279192591
-0.080856323 0.24931039 0.011589617 4279126798
-0.078374267 0.24931034 0.011591591 4279126798
-0.07589221 0.2493103 0.011593565 4279192591
-0.073410183 0.24931026 0.01159554 4278995212
-0.070928127 0.24931021 0.011597514 4279192591
-0.0684461 0.24931017 0.011599488 4279061005
-0.065964043 0.24931012 0.011601462 4278995212
-0.063482046 0.24931009 0.011603436 4279258384
-0.060999993 0.24931005 0.011605411 4279192591
-0.058517966 0.24931 0.011607384 4279258384
-0.05603591 0.24930996 0.011609359 4279061005
-0.053553883 0.24930991 0.011611333 4279126798
-0.05107183 0.24930987 0.011613308 4278929419
-0.048589773 0.24930982 0.011615281 4279192591
-0.046107747 0.24930978 0.011617255 4279126798
-0.19750254 0.24915248 0.0084968805 4279192591
-0.19563289 0.24915245 0.0084983679 4279192591
-0.19314003 0.24915241 0.0085003506 4279192591
-0.19064717 0.24915236 0.0085023334 4278995212
-0.18815431 0.24915232 0.0085043162 4279258384
-0.18566146 0.24915227 0.008506299 4279192591
-0.18316859 0.24915223 0.0085082818 4279126798
-0.18067572 0.24915218 0.0085102646 4279258384
-0.17818287 0.24915215 0.0085122474 4279192591
-0.17569 0.24915211 0.0085142301 4279061005
-0.17319715 0.24915206 0.0085162129 4279126798
-0.17070428 0.24915202 0.0085181957 4278995212
-0.16821143 0.24915197 0.0085201785 4279192591
-0.16571856 0.24915193 0.0085221613 4278995212
-0.16322568 0.24915189 0.0085241441 4279061005
-0.16073284 0.24915184 0.0085261269 4279258384
-0.15823996 0.2491518 0.0085281096 4279192591
-0.15574709 0.24915177 0.0085300924 4279126798
-0.15325424 0.24915172 0.0085320752 4279061005
-0.15076137 0.24915168 0.008534058 4278995212
-0.14826852 0.24915163 0.0085360408 4278929419
-0.14577565 0.24915159 0.0085380236 4279126798
-0.1432828 0.24915154 0.0085400064 4278995212
-0.14078994 0.2491515 0.0085419891 4279192591
-0.13829707 0.24915145 0.0085439719 4279126798
-0.13580422 0.24915141 0.0085459547 4279061005
-0.13331135 0.24915136 0.0085479375 4279061005
-0.13081847 0.24915133 0.0085499203 4278995212
-0.12832563 0.24915129 0.0085519021 4279126798
-0.12583275 0.24915124 0.0085538849 4279061005
-0.12333989 0.2491512 0.0085558677 4278995212
-0.12084703 0.24915116 0.0085578505 4279126798
-0.11835417 0.24915111 0.0085598333 4279258384
-0.11586131 0.24915107 0.0085618161 4279126798
-0.11336844 0.24915102 0.0085637989 4279061005
-0.11087559 0.24915098 0.0085657816 4279126798
-0.10838272 0.24915095 0.0085677644 4278929419
-0.10588985 0.2491509 0.0085697472 4279192591
-0.103397 0.24915086 0.00857173 4279061005
-0.10090413 0.24915081 0.0085737128 4279258384
-0.098411269 0.24915077 0.0085756956 4279061005
-0.09591841 0.24915072 0.0085776784 4279192591
-0.09342555 0.24915068 0.0085796611 4279126798
-0.09093269 0.24915063 0.0085816439 4279061005
-0.088439815 0.24915059 0.0085836267 4279061005
-0.08594697 0.24915056 0.0085856095 4279258384
-0.083454102 0.24915051 0.0085875923 4279192591
-0.080961227 0.24915047 0.0085895751 4279324177
-0.078468382 0.24915043 0.0085915579 4279192591
-0.075975537 0.24915038 0.0085935406 4279192591
-0.073482662 0.24915034 0.0085955234 4278995212
-0.070989788 0.24915029 0.0085975062 4279126798
-0.068496943 0.24915025 0.008599489 4279061005
-0.066004038 0.2491502 0.0086014718 4279192591
-0.063511193 0.24915016 0.0086034546 4278995212
-0.061018351 0.24915013 0.0086054374 4279192591
-0.058525506 0.24915008 0.0086074201 4279192591
-0.056032602 0.24915004 0.0086094029 4279126798
-0.05353976 0.24914999 0.0086113857 4278929419
-0.051046886 0.24914995 0.0086133685 4279126798
-0.048554011 0.2491499 0.0086153513 4279126798
-0.046061166 0.24914986 0.0086173341 4279192591
-0.044191517 0.24914983 0.0086188214 4279126798
-0.19603558 0.24934025 0.004497963 4278929419
-0.19352826 0.24934022 0.0044999574 4279258384
-0.19102098 0.24934018 0.0045019514 4279126798
-0.1885137 0.24934013 0.0045039458 4279126798
-0.1860064 0.24934009 0.0045059402 4279061005
-0.1834991 0.24934004 0.0045079342 4279126798
-0.18099181 0.24934 0.0045099286 4279061005
-0.17848453 0.24933995 0.0045119231 4279126798
-0.17597723 0.24933991 0.004513917 4279061005
-0.17346993 0.24933986 0.0045159115 4279192591
-0.17096263 0.24933982 0.0045179054 4279126798
-0.16845535 0.24933977 0.0045198998 4279192591
-0.16594803 0.24933974 0.0045218943 4279061005
-0.16344076 0.2493397 0.0045238882 4278995212
-0.16093346 0.24933966 0.0045258827 4279258384
-0.15842617 0.24933961 0.0045278766 4279126798
-0.15591887 0.24933957 0.004529871 4279258384
-0.15341161 0.24933952 0.0045318655 4279061005
-0.15090431 0.24933948 0.0045338594 4279061005
-0.14839701 0.24933943 0.0045358539 4279258384
-0.14588971 0.24933939 0.0045378483 4279192591
-0.14338243 0.24933934 0.0045398423 4279192591
-0.14087512 0.2493393 0.0045418367 4279126798
-0.13836783 0.24933927 0.0045438306 4279126798
-0.13586055 0.24933922 0.0045458251 4279126798
-0.13335325 0.24933918 0.0045478195 4279061005
-0.13084595 0.24933913 0.0045498135 4279126798
-0.12833866 0.24933909 0.0045518079 4279192591
-0.12583138 0.24933904 0.0045538018 4279126798
-0.12332408 0.249339 0.0045557963 4278666247
-0.12081678 0.24933895 0.0045577907 4279061005
-0.11830949 0.24933891 0.0045597847 4279258384
-0.11580222 0.24933887 0.0045617791 4279061005
-0.11329489 0.24933882 0.0045637735 4279061005
-0.11078762 0.24933879 0.0045657675 4279126798
-0.10828032 0.24933875 0.0045677619 4279061005
-0.10577304 0.2493387 0.0045697559 4279126798
-0.10326574 0.24933866 0.0045717503 4279061005
-0.10075846 0.24933861 0.0045737447 4279126798
-0.098251142 0.24933857 0.0045757387 4279126798
-0.095743865 0.24933852 0.0045777331 4279061005
-0.093236566 0.24933848 0.0045797271 4279258384
-0.090729266 0.24933843 0.0045817215 4279192591
-0.088221997 0.24933839 0.0045837159 4279192591
-0.085714668 0.24933834 0.0045857099 4279192591
-0.083207399 0.24933831 0.0045877043 4279126798
-0.080700129 0.24933827 0.0045896983 4279061005
-0.0781928 0.24933822 0.0045916927 4279192591
-0.075685531 0.24933818 0.0045936871 4279061005
-0.073178209 0.24933814 0.0045956811 4279126798
-0.07067094 0.24933809 0.0045976755 4279324177
-0.068163641 0.24933805 0.0045996699 4279126798
-0.065656342 0.249338 0.0046016639 4279061005
-0.063149042 0.24933796 0.0046036583 4278863626
-0.060641773 0.24933791 0.0046056523 4279126798
-0.058134474 0.24933787 0.0046076467 4279061005
-0.055627175 0.24933784 0.0046096412 4279061005
-0.053119879 0.24933779 0.0046116351 4279126798
-0.05061261 0.24933775 0.0046136295 4279061005
-0.048105311 0.2493377 0.0046156235 4279126798
-0.045598011 0.24933766 0.0046176179 4279192591
-0.043090686 0.24933761 0.0046196124 4279192591
